<svg xmlns="http://www.w3.org/2000/svg" xmlns:xlink="http://www.w3.org/1999/xlink" width="40.827" height="40.828" viewBox="0 0 40.827 40.828">
  <defs>
    <filter id="パス_727" x="0" y="0" width="40.827" height="40.828" filterUnits="userSpaceOnUse">
      <feOffset dy="3" input="SourceAlpha"/>
      <feGaussianBlur stdDeviation="3" result="blur"/>
      <feFlood flood-color="#faf5f5" flood-opacity="0.161"/>
      <feComposite operator="in" in2="blur"/>
      <feComposite in="SourceGraphic"/>
    </filter>
  </defs>
  <g transform="matrix(1, 0, 0, 1, 0, 0)" filter="url(#パス_727)">
    <g id="パス_727-2" data-name="パス 727" transform="translate(-73.61 0.42)" fill="#0f0e0e">
      <path d="M 102.0979232788086 27.70516777038574 L 101.7443771362305 27.35158729553223 L 94.02642822265625 19.63288116455078 L 86.30847930908203 27.35158729553223 L 85.95492553710938 27.70516777038574 L 85.60135650634766 27.35159683227539 L 83.67377471923828 25.42401695251465 L 83.32023620605469 25.07048606872559 L 83.67375946044922 24.71692657470703 L 89.48214721679688 18.90795707702637 L 91.39186859130859 16.99805068969727 L 83.67375946044922 9.279167175292969 L 83.32023620605469 8.925606727600098 L 83.67377471923828 8.572076797485352 L 85.60135650634766 6.644496917724609 L 85.95492553710938 6.290926933288574 L 86.30847930908203 6.644506931304932 L 94.02642822265625 14.36320304870605 L 101.7443771362305 6.644506931304932 L 102.0979232788086 6.290926933288574 L 102.4514923095703 6.644486904144287 L 104.3790969848633 8.572067260742188 L 104.7326354980469 8.925606727600098 L 104.3791122436523 9.279167175292969 L 96.66098022460938 16.998046875 L 104.3791122436523 24.71692657470703 L 104.7326354980469 25.07048606872559 L 104.3790969848633 25.42402648925781 L 102.4514923095703 27.35160636901855 L 102.0979232788086 27.70516777038574 Z" stroke="none"/>
      <path d="M 85.95490264892578 6.998046875 L 84.02732849121094 8.925626754760742 L 92.09893798828125 16.998046875 C 92.09893798828125 16.998046875 91.85362243652344 17.2433967590332 89.83571624755859 19.26149749755859 C 87.81780242919922 21.27960586547852 84.02732849121094 25.07046699523926 84.02732849121094 25.07046699523926 L 85.95490264892578 26.998046875 L 94.02642822265625 18.92573547363281 L 102.0979461669922 26.998046875 L 104.0255432128906 25.07046699523926 L 95.95390319824219 16.998046875 L 104.0255432128906 8.925626754760742 L 102.0979461669922 6.998046875 L 94.02642822265625 15.07034683227539 L 85.95490264892578 6.998046875 M 85.95493316650391 5.583797454833984 L 86.66204833984375 6.290977478027344 L 94.02642822265625 13.65606880187988 L 101.3908081054688 6.290977478027344 L 102.0979080200195 5.583806991577148 L 102.805046081543 6.290937423706055 L 104.7326431274414 8.218517303466797 L 105.4397277832031 8.925586700439453 L 104.7326889038086 9.632696151733398 L 97.36804962158203 16.998046875 L 104.7326889038086 24.36339569091797 L 105.4397277832031 25.07050704956055 L 104.7326431274414 25.7775764465332 L 102.805046081543 27.70515632629395 L 102.0979080200195 28.41228675842285 L 101.3908081054688 27.70511627197266 L 94.02642822265625 20.34001541137695 L 86.66204833984375 27.70511627197266 L 85.95493316650391 28.41229629516602 L 85.24779510498047 27.70515632629395 L 83.32021331787109 25.7775764465332 L 82.61314392089844 25.07050704956055 L 83.32018280029297 24.36339569091797 L 89.12857818603516 18.55442810058594 L 90.68479919433594 16.998046875 L 83.32018280029297 9.632696151733398 L 82.61314392089844 8.925586700439453 L 83.32021331787109 8.218517303466797 L 85.24779510498047 6.290937423706055 L 85.95493316650391 5.583797454833984 Z" stroke="none" fill="#fff"/>
    </g>
  </g>
</svg>
