<?xml version="1.0" encoding="UTF-8"?><svg id="_レイヤー_2" xmlns="http://www.w3.org/2000/svg" viewBox="0 0 100 100"><defs><style>.cls-1{fill:none;}.cls-1,.cls-2{stroke-width:0px;}</style></defs><g id="text"><rect class="cls-1" width="100" height="100"/><path class="cls-2" d="M33.24,43.02h5.49c8.24,0,12.7-4.35,12.7-11.78,0-5.72-4.46-10.41-11.21-10.41s-10.64,4.23-11.21,9.72h-12.13c.34-12.7,11.1-21.05,23.8-21.05,13.84,0,23.91,9.5,23.91,21.39,0,8.58-5.03,14.53-11.21,17.62,7.21,3.2,12.36,9.38,12.36,19.11,0,12.47-8.92,22.88-24.14,22.88-16.02,0-25.05-9.15-25.74-21.62h12.13c.92,5.72,4.92,10.07,13.04,10.07,6.86,0,11.56-5.03,11.56-11.67,0-8.01-4.69-12.81-13.84-12.81h-5.49v-11.44Z"/></g></svg>